<svg width="139" height="60" viewBox="0 0 139 60" fill="none" xmlns="http://www.w3.org/2000/svg">
<g clip-path="url(#clip0_652_15)">
<path d="M51.4119 56.8328C48.1944 58.9077 44.3907 60.0116 40.5 59.9996C35.5795 60.0244 30.827 58.3033 27.1761 55.1744C26.8917 54.9347 27.1761 54.615 27.471 54.7948C31.0115 56.7296 34.9757 57.8617 39.0539 58.1026C43.1321 58.3435 47.2138 57.6867 50.98 56.1834C51.4856 55.9836 51.8964 56.4931 51.4119 56.8328V56.8328Z" fill="black"/>
<path d="M52.6411 55.5049C52.2619 55.0454 50.1448 55.2851 49.1863 55.395C48.9019 55.395 48.8598 55.1952 49.1126 55.0154C50.8084 53.8965 53.5785 54.2162 53.8944 54.5958C54.2104 54.9754 53.8102 57.5928 52.2303 58.8615C51.988 59.0514 51.7563 58.9515 51.8616 58.7017C52.2197 57.8526 53.0097 55.9644 52.6411 55.5049V55.5049ZM49.2601 47.0733V45.9744C49.2586 45.9373 49.2652 45.9003 49.2795 45.8657C49.2938 45.8312 49.3155 45.7998 49.3432 45.7735C49.3708 45.7473 49.4039 45.7267 49.4404 45.7131C49.4768 45.6996 49.5158 45.6933 49.555 45.6947H54.6949C54.7341 45.6933 54.7731 45.6996 54.8095 45.7131C54.846 45.7267 54.8791 45.7473 54.9068 45.7735C54.9344 45.7998 54.9561 45.8312 54.9704 45.8657C54.9847 45.9003 54.9913 45.9373 54.9898 45.9744V46.9135C54.9898 47.0733 54.8529 47.2731 54.6001 47.6028L51.9248 51.2292C52.9469 51.1726 53.9661 51.3797 54.874 51.8286C54.954 51.87 55.0213 51.9305 55.0694 52.0041C55.1174 52.0776 55.1444 52.1617 55.1478 52.2482V53.417C55.1478 53.5768 54.9582 53.7666 54.7687 53.6667C53.9254 53.2533 52.99 53.0375 52.0407 53.0375C51.0914 53.0375 50.156 53.2533 49.3127 53.6667C49.1337 53.7567 48.9441 53.5768 48.9441 53.417V52.3381C48.9259 52.0759 48.992 51.8146 49.1337 51.5888L52.2513 47.3431H49.555C49.5168 47.3444 49.4786 47.3384 49.4429 47.3255C49.4072 47.3125 49.3746 47.2929 49.347 47.2677C49.3195 47.2425 49.2976 47.2123 49.2827 47.1789C49.2677 47.1455 49.26 47.1096 49.2601 47.0733V47.0733ZM59.4768 47.1233C58.3182 47.1233 58.2445 48.6218 58.2445 49.5509C58.2445 50.4799 58.2444 52.4779 59.4662 52.4779C60.688 52.4779 60.7407 50.8695 60.7407 49.8905C60.7637 49.2169 60.6821 48.5436 60.4984 47.8925C60.4501 47.6677 60.3158 47.4678 60.1213 47.3313C59.9268 47.1948 59.686 47.1314 59.4452 47.1532L59.4768 47.1233ZM59.4768 45.5548C61.8045 45.5548 63.0684 47.4629 63.0684 49.8705C63.0684 52.2781 61.6781 54.0564 59.4768 54.0564C57.2754 54.0564 55.9378 52.1582 55.9378 49.7906C55.9378 47.423 57.2017 45.5548 59.4768 45.5548ZM46.7217 53.8765C46.6664 53.9093 46.6025 53.9267 46.5374 53.9267C46.4722 53.9267 46.4083 53.9093 46.353 53.8765C45.9949 53.5934 45.6888 53.2558 45.4472 52.8775C45.1385 53.2422 44.7421 53.5313 44.2913 53.7208C43.8405 53.9102 43.3484 53.9945 42.8562 53.9664C42.5338 53.9839 42.2112 53.9348 41.9108 53.8226C41.6103 53.7103 41.3391 53.5376 41.1158 53.3164C40.8925 53.0951 40.7225 52.8305 40.6175 52.5409C40.5124 52.2513 40.4749 51.9435 40.5074 51.6388C40.4908 51.1189 40.6424 50.6067 40.9418 50.1709C41.2411 49.7352 41.674 49.3968 42.1821 49.2012C43.1387 48.9012 44.135 48.7297 45.1418 48.6917C45.1891 48.2572 45.124 47.8183 44.9522 47.413C44.8449 47.2893 44.7097 47.1901 44.5566 47.1227C44.4034 47.0553 44.2363 47.0213 44.0674 47.0234C43.7811 47.0041 43.4968 47.0819 43.2654 47.2429C43.0339 47.4039 42.8702 47.6377 42.8035 47.9025C42.8035 48.0723 42.6455 48.2022 42.5086 48.1922L41.0024 48.0823C40.9648 48.0763 40.9288 48.0632 40.8966 48.0438C40.8644 48.0243 40.8367 47.9989 40.8151 47.9691C40.7934 47.9393 40.7784 47.9056 40.7707 47.8702C40.7631 47.8347 40.7631 47.7981 40.7707 47.7626C41.1183 46.0144 42.793 45.4849 44.2886 45.4849C45.1463 45.4549 45.987 45.7171 46.6585 46.2242C47.4168 46.9035 47.3431 47.8126 47.3431 48.7916V51.1193C47.3481 51.6351 47.5632 52.1291 47.9435 52.4979C47.9969 52.5501 48.0267 52.62 48.0267 52.6927C48.0267 52.7655 47.9969 52.8353 47.9435 52.8875L46.7322 53.8865L46.7217 53.8765ZM45.1418 50.2402C45.1983 50.7853 45.0963 51.3346 44.8469 51.8286C44.7487 52.0189 44.5999 52.1816 44.4152 52.3007C44.2305 52.4199 44.0163 52.4913 43.7936 52.5079C43.1827 52.5079 42.8351 52.0683 42.8351 51.419C42.8351 50.1503 44.0358 49.9205 45.1734 49.9205V50.2402H45.1418ZM26.1197 53.8765C26.0645 53.9093 26.0006 53.9267 25.9354 53.9267C25.8702 53.9267 25.8063 53.9093 25.7511 53.8765C25.3929 53.5934 25.0868 53.2558 24.8453 52.8775C24.5326 53.2378 24.1355 53.5239 23.6857 53.713C23.2358 53.902 22.7457 53.9888 22.2542 53.9664C21.9383 53.9787 21.6232 53.9273 21.3298 53.8154C21.0364 53.7036 20.7714 53.5339 20.5524 53.3176C20.3333 53.1013 20.1652 52.8434 20.0591 52.5609C19.953 52.2783 19.9114 51.9776 19.937 51.6787C19.9189 51.1586 20.0699 50.6457 20.3695 50.2097C20.669 49.7737 21.1027 49.4355 21.6117 49.2412C22.5684 48.9412 23.5646 48.7697 24.5714 48.7317C24.6189 48.2963 24.5501 47.8565 24.3713 47.453C24.2689 47.3266 24.1361 47.2253 23.9841 47.1575C23.832 47.0897 23.665 47.0574 23.4971 47.0633C23.2103 47.042 22.925 47.119 22.693 47.2803C22.4611 47.4417 22.2979 47.6766 22.2332 47.9425C22.2332 48.1123 22.0752 48.2422 21.9382 48.2322L20.4321 48.0823C20.3944 48.0763 20.3584 48.0632 20.3262 48.0438C20.2941 48.0243 20.2663 47.9989 20.2447 47.9691C20.2231 47.9393 20.208 47.9056 20.2004 47.8702C20.1928 47.8347 20.1928 47.7981 20.2003 47.7626C20.5479 46.0144 22.2226 45.4849 23.7183 45.4849C24.5729 45.4537 25.4107 45.7162 26.0776 46.2242C26.8465 46.9035 26.7728 47.8126 26.7728 48.7916V51.1193C26.7678 51.6257 26.9589 52.1163 27.3099 52.4979C27.3376 52.5231 27.3597 52.5533 27.3748 52.5868C27.3898 52.6203 27.3976 52.6563 27.3976 52.6927C27.3976 52.7291 27.3898 52.7651 27.3748 52.7986C27.3597 52.8321 27.3376 52.8623 27.3099 52.8875L26.0987 53.8865L26.1197 53.8765ZM24.5398 50.2402C24.5964 50.7853 24.4944 51.3346 24.2449 51.8286C24.1459 52.0183 23.9969 52.1805 23.8124 52.2995C23.6278 52.4185 23.414 52.4903 23.1916 52.5079C22.5913 52.5079 22.2437 52.0683 22.2437 51.419C22.2437 50.1503 23.4444 49.9205 24.5819 49.9205V50.2402H24.5398ZM30.712 49.5708C30.712 48.6817 30.712 47.4629 31.7652 47.4629C32.8185 47.4629 32.7237 48.7117 32.7237 49.5708V53.6268C32.7237 53.6966 32.7522 53.7638 32.8033 53.8141C32.8543 53.8644 32.924 53.8939 32.9976 53.8965H34.5669C34.6057 53.8978 34.6443 53.8919 34.6806 53.8791C34.717 53.8663 34.7503 53.8467 34.7786 53.8217C34.807 53.7966 34.8299 53.7665 34.846 53.7331C34.8621 53.6996 34.871 53.6635 34.8724 53.6268V49.5708C34.8405 49.077 34.8903 48.5815 35.0199 48.1023C35.0951 47.9226 35.2238 47.7675 35.3902 47.6558C35.5566 47.5441 35.7536 47.4805 35.9573 47.4729C36.1723 47.4444 36.3904 47.4977 36.5641 47.6212C36.7378 47.7448 36.8528 47.9285 36.8841 48.1323C36.9213 48.6111 36.9213 49.092 36.8841 49.5708V53.6268C36.8868 53.6975 36.9176 53.7647 36.9703 53.8148C37.0231 53.8648 37.0939 53.894 37.1685 53.8965H38.7379C38.7766 53.8978 38.8153 53.8919 38.8516 53.8791C38.8879 53.8663 38.9212 53.8467 38.9496 53.8217C38.9779 53.7966 39.0008 53.7665 39.0169 53.7331C39.033 53.6996 39.042 53.6635 39.0433 53.6268V48.7916C39.1753 47.9724 39.0354 47.1345 38.6431 46.394C38.4323 46.1286 38.1582 45.9142 37.8434 45.7684C37.5285 45.6225 37.1818 45.5494 36.8315 45.5548C36.3565 45.5418 35.8894 45.6722 35.4976 45.9271C35.1058 46.1821 34.8094 46.5485 34.6512 46.9734C34.5193 46.5605 34.25 46.1992 33.8836 45.9434C33.5171 45.6877 33.0733 45.5514 32.6184 45.5548C32.151 45.5359 31.6903 45.665 31.3089 45.9219C30.9275 46.1787 30.6471 46.5487 30.5119 46.9734V45.9744C30.5091 45.902 30.4769 45.8334 30.4218 45.7831C30.3668 45.7327 30.2934 45.7047 30.2169 45.7047H28.8582C28.82 45.7034 28.7819 45.7093 28.7462 45.7223C28.7104 45.7352 28.6778 45.7549 28.6503 45.7801C28.6228 45.8053 28.6009 45.8355 28.5859 45.8688C28.571 45.9022 28.5633 45.9382 28.5633 45.9744V53.5968C28.5618 53.6339 28.5684 53.6709 28.5827 53.7055C28.597 53.7401 28.6187 53.7715 28.6464 53.7977C28.6741 53.824 28.7072 53.8445 28.7436 53.8581C28.7801 53.8717 28.8191 53.8779 28.8582 53.8765H30.4697C30.508 53.8766 30.5458 53.8693 30.581 53.8551C30.6163 53.8409 30.6481 53.8201 30.6746 53.794C30.7012 53.7679 30.7219 53.737 30.7356 53.7031C30.7492 53.6692 30.7555 53.6331 30.7541 53.5968V49.6008L30.712 49.5708ZM66.3862 53.6168C66.3877 53.6539 66.3811 53.6909 66.3668 53.7255C66.3525 53.76 66.3308 53.7914 66.3031 53.8177C66.2754 53.844 66.2423 53.8645 66.2059 53.8781C66.1694 53.8916 66.1304 53.8979 66.0913 53.8965H64.5219C64.4437 53.8965 64.3687 53.867 64.3134 53.8146C64.2581 53.7621 64.227 53.691 64.227 53.6168V45.9944C64.2298 45.922 64.262 45.8534 64.317 45.803C64.372 45.7527 64.4455 45.7246 64.5219 45.7247H65.9754C66.0429 45.7207 66.1096 45.7397 66.1636 45.7781C66.2176 45.8166 66.2555 45.872 66.2704 45.9345V47.1033C66.3795 46.6544 66.6488 46.2551 67.0326 45.9729C67.4165 45.6908 67.8914 45.5431 68.3769 45.5548C68.739 45.5441 69.0979 45.6221 69.419 45.7814C69.74 45.9406 70.0123 46.1757 70.2096 46.4639C70.5554 47.211 70.6967 48.0289 70.6204 48.8416V53.6567C70.6124 53.7247 70.5775 53.7873 70.5228 53.8318C70.468 53.8763 70.3975 53.8995 70.3254 53.8965H68.8087C68.7403 53.8945 68.6749 53.8691 68.6246 53.8251C68.5743 53.7811 68.5425 53.7213 68.5349 53.6567V49.0314C68.5349 47.4829 67.9029 47.443 67.5448 47.443C67.3501 47.4535 67.1624 47.5152 67.0024 47.621C66.8425 47.7269 66.7167 47.8727 66.639 48.0424C66.4445 48.5055 66.3583 49.0031 66.3862 49.5009V53.6168V53.6168Z" fill="black"/>
<path d="M5.19435 53.8758L5.06796 53.0965C4.69789 53.4017 4.27346 53.6419 3.81457 53.8058C3.38283 53.9724 2.92192 54.0605 2.45585 54.0656C2.12966 54.0821 1.80326 54.0368 1.49579 53.9321C1.18832 53.8275 0.905971 53.6657 0.665296 53.4562C0.437399 53.2479 0.259288 52.9956 0.142997 52.7164C0.0267057 52.4372 -0.0250577 52.1376 -0.00879775 51.8378C-0.0220711 51.5062 0.0450993 51.1761 0.187535 50.873C0.329971 50.5699 0.543871 50.3019 0.812753 50.0895C1.44283 49.6336 2.22253 49.4036 3.01409 49.4402C3.68631 49.4497 4.35481 49.5369 5.00477 49.6999V48.7009C5.02847 48.4958 5.00598 48.2881 4.9388 48.0918C4.87162 47.8955 4.76128 47.7149 4.61506 47.5621C4.23228 47.3056 3.76485 47.1885 3.29847 47.2324C2.3542 47.2437 1.41832 47.4023 0.52837 47.7019V46.663C0.966548 46.4525 1.43501 46.3044 1.91869 46.2234C2.46248 46.1154 3.01673 46.0618 3.57232 46.0636C4.35702 46.0019 5.13881 46.2112 5.77365 46.653C6.0246 46.8847 6.21882 47.1658 6.34258 47.4765C6.46634 47.7873 6.51663 48.12 6.48988 48.4512V53.8758H5.19435ZM2.8245 52.9467C3.61929 52.9181 4.38346 52.6484 5.00477 52.1775V50.659C4.45728 50.5275 3.89482 50.4604 3.33007 50.4592C2.15041 50.4592 1.55004 50.8987 1.55004 51.7579C1.53937 51.9185 1.5638 52.0795 1.6218 52.2308C1.67979 52.3821 1.77011 52.5204 1.88709 52.637C2.01548 52.7458 2.16543 52.8292 2.32819 52.8823C2.49095 52.9355 2.66326 52.9574 2.83503 52.9467H2.8245ZM14.2314 53.8758V48.8008C14.2675 48.3843 14.1441 47.9693 13.8838 47.632C13.7479 47.5005 13.5829 47.3992 13.4008 47.3353C13.2187 47.2714 13.024 47.2465 12.8306 47.2624C11.9538 47.2749 11.1016 47.5396 10.387 48.0216V53.8758H8.8176V46.2833H10.1237L10.2816 47.1225C11.1826 46.448 12.2937 46.0756 13.4415 46.0636C13.7592 46.0415 14.0783 46.0816 14.379 46.1812C14.6798 46.2809 14.9558 46.4381 15.1899 46.643C15.4068 46.8723 15.572 47.1412 15.6752 47.4333C15.7785 47.7253 15.8176 48.0343 15.7902 48.3413V53.9157L14.2314 53.8758ZM80.8296 53.586C80.1758 53.8944 79.4532 54.0486 78.7231 54.0356C78.2017 54.068 77.6789 53.9957 77.1889 53.8236C76.6989 53.6515 76.2527 53.3833 75.8793 53.0366C75.2275 52.1839 74.8765 51.1577 74.8765 50.1045C74.8765 49.0513 75.2275 48.0251 75.8793 47.1725C76.2575 46.8234 76.7091 46.554 77.2046 46.3819C77.7001 46.2097 78.2283 46.1387 78.7547 46.1735C79.4431 46.1697 80.1235 46.3131 80.7454 46.593V47.652C80.1826 47.4649 79.593 47.3605 78.997 47.3423C78.6493 47.311 78.2986 47.352 77.9693 47.4624C77.6401 47.5728 77.3402 47.75 77.0905 47.9816C76.6531 48.5611 76.4477 49.2695 76.5112 49.9797V50.1695C76.4508 50.8808 76.6599 51.5893 77.1011 52.1675C77.3439 52.3965 77.6366 52.5724 77.9586 52.6828C78.2806 52.7933 78.6243 52.8356 78.9654 52.8068C79.5991 52.7962 80.2276 52.6951 80.8296 52.5071V53.586ZM85.7379 54.0955C85.2161 54.1237 84.6942 54.0435 84.2085 53.8607C83.7227 53.6778 83.285 53.3965 82.9257 53.0366C82.2617 52.1793 81.9037 51.1433 81.9037 50.0796C81.9037 49.0158 82.2617 47.9798 82.9257 47.1225C83.6844 46.4424 84.6887 46.0635 85.7326 46.0635C86.7765 46.0635 87.7809 46.4424 88.5396 47.1225C89.2035 47.9798 89.5616 49.0158 89.5616 50.0796C89.5616 51.1433 89.2035 52.1793 88.5396 53.0366C88.1823 53.3963 87.7464 53.6775 87.2624 53.8604C86.7784 54.0433 86.2581 54.1236 85.7379 54.0955ZM85.7379 52.8967C87.2125 52.8967 87.9603 51.9577 87.9603 50.0696C87.9603 48.1815 87.2125 47.2624 85.7379 47.2624C84.2633 47.2624 83.5155 48.1914 83.5155 50.0696C83.5155 51.9477 84.2528 52.8967 85.7379 52.8967ZM101.695 53.8758V48.7209C101.726 48.3338 101.623 47.9477 101.4 47.622C101.282 47.4962 101.136 47.3981 100.971 47.3357C100.806 47.2732 100.629 47.2481 100.452 47.2624C99.629 47.2767 98.8266 47.5085 98.1349 47.9317C98.1404 48.0082 98.1404 48.085 98.1349 48.1615V53.8758H96.576V48.7209C96.603 48.3342 96.4997 47.9494 96.2811 47.622C96.1636 47.4962 96.0166 47.3981 95.8521 47.3357C95.6875 47.2732 95.5098 47.2481 95.3332 47.2624C94.5136 47.2679 93.7129 47.4968 93.0265 47.9217V53.9157H91.4677V46.3233H92.7737L92.9317 47.0925C93.7852 46.4836 94.8138 46.1352 95.8809 46.0935C96.2855 46.049 96.6948 46.1239 97.0529 46.308C97.4111 46.4922 97.7006 46.7766 97.8821 47.1225C98.7857 46.4526 99.8951 46.0808 101.042 46.0636C101.348 46.0434 101.656 46.0846 101.944 46.1844C102.233 46.2842 102.496 46.4405 102.717 46.643C103.125 47.1197 103.318 47.7301 103.254 48.3413V53.9157L101.695 53.8758ZM105.56 56.9527V46.2833H106.866L107.014 47.0626C107.737 46.4224 108.689 46.0655 109.679 46.0636C110.135 46.0392 110.591 46.1169 111.01 46.2904C111.429 46.464 111.799 46.7285 112.091 47.0626C112.722 47.8947 113.034 48.9063 112.975 49.9297C113.043 51.002 112.711 52.0627 112.038 52.9267C111.748 53.2844 111.372 53.5715 110.941 53.7643C110.511 53.9571 110.039 54.0501 109.563 54.0356C108.659 54.0531 107.783 53.738 107.119 53.1565V56.9527H105.56ZM109.236 47.2624C108.474 47.2703 107.735 47.5121 107.13 47.9517V52.1175C107.729 52.5704 108.47 52.8232 109.236 52.8368C110.69 52.8368 111.406 51.9077 111.406 50.0596C111.468 49.3219 111.284 48.5845 110.879 47.9517C110.69 47.7141 110.439 47.5262 110.152 47.4056C109.864 47.285 109.549 47.2357 109.236 47.2624ZM119.6 53.8758L119.474 53.0965C119.104 53.4017 118.68 53.6419 118.221 53.8058C117.785 53.9723 117.321 54.0604 116.851 54.0656C116.525 54.081 116.199 54.0351 115.892 53.9305C115.585 53.826 115.302 53.6647 115.061 53.4562C114.837 53.2458 114.661 52.993 114.547 52.7141C114.433 52.4352 114.382 52.1366 114.397 51.8378C114.383 51.507 114.448 51.1774 114.589 50.8744C114.73 50.5713 114.941 50.3029 115.208 50.0895C115.842 49.6321 116.625 49.4021 117.42 49.4402C118.092 49.4497 118.761 49.5369 119.411 49.6999V48.7009C119.432 48.4959 119.408 48.2889 119.341 48.093C119.274 47.897 119.165 47.7163 119.021 47.5621C118.638 47.3056 118.171 47.1885 117.705 47.2324C116.757 47.2428 115.817 47.4014 114.924 47.7019V46.663C115.362 46.4525 115.831 46.3044 116.314 46.2234C116.858 46.1159 117.412 46.0624 117.968 46.0636C118.756 46.0039 119.54 46.2129 120.18 46.653C120.429 46.8856 120.621 47.1671 120.743 47.4778C120.865 47.7885 120.914 48.1207 120.885 48.4512V53.8758H119.6ZM117.231 52.9467C118.025 52.9181 118.79 52.6484 119.411 52.1775V50.659C118.863 50.5275 118.301 50.4604 117.736 50.4592C116.546 50.4592 115.956 50.8987 115.956 51.7579C115.944 51.9178 115.967 52.0784 116.023 52.2296C116.079 52.3809 116.168 52.5195 116.283 52.637C116.544 52.8538 116.884 52.965 117.231 52.9467V52.9467ZM128.616 53.8758V48.8008C128.65 48.386 128.531 47.9729 128.279 47.632C128.143 47.5005 127.979 47.3992 127.796 47.3353C127.614 47.2714 127.42 47.2465 127.226 47.2624C126.349 47.2749 125.497 47.5396 124.783 48.0216V53.8758H123.224V46.2833H124.53L124.688 47.1225C125.588 46.4473 126.7 46.0749 127.848 46.0636C128.167 46.0413 128.488 46.0813 128.79 46.1809C129.093 46.2805 129.37 46.4378 129.607 46.643C130.026 47.1003 130.238 47.6964 130.196 48.3013V53.8758H128.616ZM138.96 46.2833L135.315 55.2044C135.123 55.769 134.782 56.2778 134.325 56.6829C133.909 56.9934 133.39 57.1528 132.861 57.1325C132.444 57.1352 132.029 57.064 131.639 56.9227V55.8638C131.932 55.9331 132.233 55.9667 132.535 55.9637C132.869 55.9821 133.2 55.8825 133.462 55.6839C133.746 55.403 133.952 55.0598 134.062 54.6849L134.367 53.9257L131.144 46.2634H132.819L135.126 52.4772L137.348 46.2634H138.96V46.2833ZM31.3049 15.604H4.54133V15.4642C4.63617 14.5714 4.85577 13.6946 5.19435 12.8568C6.32644 9.72705 8.59174 7.07937 11.5877 5.38425C13.6139 4.29643 15.9175 3.76058 18.2444 3.8358C19.9947 3.82728 21.7299 4.14287 23.3527 4.76486C24.8954 5.34607 26.3073 6.20043 27.5131 7.28235C28.6739 8.33016 29.6139 9.57776 30.2832 10.9587C30.9804 12.3649 31.3401 13.9002 31.3365 15.4542L31.3049 15.604ZM18.4866 -0.000368763C15.9331 -0.0325038 13.4006 0.440419 11.0505 1.38824C8.84645 2.30308 6.85589 3.62401 5.19435 5.27436C3.52338 6.95081 2.21703 8.92311 1.34992 11.0786C0.432977 13.4105 -0.0240188 15.8825 0.00173519 18.3713C-0.0315343 20.9239 0.417949 23.4616 1.32886 25.8638C2.16035 28.0362 3.45061 30.0249 5.12063 31.7079C6.78857 33.3634 8.80548 34.6671 11.04 35.5341C13.4815 36.4707 16.0955 36.936 18.7289 36.9027C21.8583 36.9348 24.9595 36.339 27.8291 35.1545C30.6344 33.9254 33.0127 31.9642 34.6859 29.5001L31.3681 26.8528C30.0815 28.7842 28.2596 30.3429 26.1018 31.3583C23.8639 32.4652 21.3791 33.0476 18.8553 33.0566C16.3991 33.1506 13.9615 32.6157 11.7984 31.5081C10.0905 30.5675 8.60591 29.3023 7.43782 27.7918C6.40595 26.462 5.64508 24.9611 5.19435 23.3663C4.83096 22.1457 4.62582 20.8877 4.58346 19.62V19.4802H35.8445V16.3733C35.8289 14.3265 35.4368 12.2981 34.6859 10.3793C33.9499 8.43411 32.8232 6.6428 31.3681 5.10453C29.8547 3.53182 28.02 2.26744 25.9754 1.38824C23.6136 0.418474 21.0597 -0.0584975 18.4866 -0.010359V-0.000368763ZM72.6036 15.604H45.8506V15.4642C45.9454 14.5714 46.165 13.6946 46.5036 12.8568C47.0161 11.453 47.759 10.1347 48.7049 8.95068C49.8524 7.51689 51.2834 6.3089 52.918 5.39424C54.9427 4.303 57.2474 3.7669 59.5747 3.84578C61.3215 3.83728 63.0533 4.1529 64.6725 4.77486C66.2351 5.34796 67.6659 6.20288 68.8856 7.29234C70.0105 8.3473 70.9146 9.5947 71.5503 10.9687C72.2426 12.3765 72.6021 13.9108 72.6036 15.4642V15.604ZM59.7958 -0.000368763C57.239 -0.0324316 54.703 0.44046 52.3492 1.38824C50.153 2.30149 48.1697 3.61896 46.5141 5.26437C44.8396 6.93823 43.5328 8.91122 42.6697 11.0686C41.7429 13.4017 41.2822 15.8781 41.311 18.3713C41.2795 20.9229 41.7253 23.4597 42.6276 25.8638C43.4662 28.0352 44.7596 30.0232 46.4299 31.7079C48.0978 33.3634 50.1147 34.6671 52.3492 35.5341C54.7905 36.4715 57.4046 36.9368 60.0381 36.9027C63.1675 36.9348 66.2687 36.339 69.1384 35.1545C71.9368 33.9236 74.3079 31.9624 75.9741 29.5001L72.6563 26.8528C71.3591 28.7942 69.5172 30.3544 67.3373 31.3583C65.0995 32.4652 62.6146 33.0476 60.0908 33.0566C57.6346 33.1506 55.197 32.6157 53.0339 31.5081C51.326 30.5675 49.8414 29.3023 48.6733 27.7918C47.6485 26.4621 46.8981 24.9605 46.4615 23.3663C46.0981 22.1457 45.8929 20.8877 45.8506 19.62V19.4802H77.1537V16.3733C77.1463 14.3294 76.7687 12.3019 76.0373 10.3793C75.3013 8.43411 74.1745 6.6428 72.7195 5.10453C71.2072 3.53498 69.3766 2.271 67.3373 1.38824C64.9748 0.420558 62.4214 -0.0563232 59.8485 -0.010359L59.7958 -0.000368763ZM118.358 33.0566C116.231 33.083 114.121 32.6883 112.164 31.8977C110.382 31.1636 108.774 30.0968 107.435 28.7609C106.121 27.4249 105.11 25.8472 104.465 24.1255C103.103 20.4529 103.103 16.4495 104.465 12.7769C105.113 11.0533 106.123 9.47282 107.435 8.1315C108.774 6.79873 110.383 5.73532 112.164 5.00463C116.132 3.45921 120.583 3.45921 124.551 5.00463C126.335 5.72117 127.941 6.78234 129.269 8.12051C130.596 9.45868 131.615 11.0445 132.261 12.7769C133.623 16.4495 133.623 20.4529 132.261 24.1255C131.61 25.847 130.596 27.4244 129.28 28.7609C127.943 30.0989 126.335 31.166 124.551 31.8977C122.594 32.6892 120.485 33.0839 118.358 33.0566V33.0566ZM118.358 -0.000368763C115.676 -0.0162585 113.016 0.455101 110.521 1.38824C108.207 2.23964 106.108 3.54326 104.36 5.21442C102.631 6.89235 101.271 8.87872 100.357 11.0586C99.3866 13.4131 98.9038 15.9232 98.9353 18.4512C98.9078 20.9872 99.3978 23.5043 100.378 25.8638C101.292 28.0436 102.652 30.03 104.381 31.7079C106.128 33.3704 108.219 34.6729 110.521 35.5341C113.021 36.4617 115.684 36.9263 118.368 36.9027C121.042 36.9289 123.696 36.4641 126.183 35.5341C128.493 34.6727 130.591 33.3697 132.347 31.706C134.103 30.0423 135.479 28.0536 136.39 25.8638C138.313 21.0905 138.313 15.8119 136.39 11.0386C135.469 8.85277 134.093 6.86522 132.345 5.19444C130.581 3.54214 128.481 2.24719 126.173 1.38824C123.685 0.458197 121.031 -0.00655453 118.358 0.0196098V-0.000368763ZM82.5781 35.9836H87.1177V16.8428C87.105 15.1828 87.3498 13.5301 87.8444 11.9377C88.3049 10.4755 89.0715 9.11641 90.0984 7.94169C91.1406 6.77545 92.4576 5.85828 93.9429 5.26437C95.6393 4.58781 97.4638 4.24782 99.304 4.26536V0.26936C94.0376 0.36926 89.8772 1.90772 87.0018 4.82481C82.2726 9.61002 82.5781 16.5631 82.5781 16.633V35.9836Z" fill="black"/>
</g>
<defs>
<clipPath id="clip0_652_15">
<rect width="139" height="60" fill="white"/>
</clipPath>
</defs>
</svg>
