<svg width="163" height="60" viewBox="0 0 163 60" fill="none" xmlns="http://www.w3.org/2000/svg">
<path d="M89.3947 29.7871H84.3125V44.5417H89.3947V29.7871Z" fill="#00B100"/>
<path d="M71.0596 32.2165C71.0596 31.9691 71.071 18.4403 71.0824 16H66C66 18.4628 66 32.2277 66 32.2952C66.0229 35.5678 67.3249 38.6378 69.6661 40.9544C69.9175 41.2132 70.1915 41.4605 70.477 41.6855C72.7956 43.5973 75.6165 44.5645 78.8601 44.5645H81.7839V39.5713C81.2813 39.5713 78.5746 39.5713 78.5175 39.5713C74.4059 39.56 71.0596 36.265 71.0596 32.2165Z" fill="#00B100"/>
<path d="M124.376 22.6582C122.64 20.8701 120.435 20.1504 118.037 20.1504C115.57 20.1504 113.366 20.9376 111.675 22.6582C110.419 23.9289 109.688 25.5595 109.688 25.5595C109.688 25.5595 108.957 23.9289 107.701 22.6582C105.999 20.9263 103.806 20.1504 101.339 20.1504C98.9408 20.1504 96.7481 20.8701 95.0007 22.6582C93.1275 24.5925 92.1911 27.3702 92.1911 30.519C92.1911 35.9508 92.1911 42.822 92.1797 44.4976H97.2277C97.2391 42.5859 97.2962 34.0165 97.2962 30.519C97.2962 26.1894 99.6946 24.6487 102.059 24.6487C102.584 24.6487 103.11 24.7387 103.612 24.9073C104.628 25.1997 105.736 26.1781 106.228 26.9653C106.696 27.7188 107.004 28.596 107.004 30.3729V44.4976H112.349V30.3729C112.349 28.596 112.658 27.7188 113.126 26.9653C113.617 26.1781 114.725 25.1997 115.741 24.9073C116.244 24.7387 116.769 24.6487 117.294 24.6487C119.659 24.6487 122.057 26.1894 122.057 30.519C122.057 34.0053 122.114 42.5859 122.126 44.4976H127.174C127.174 42.822 127.162 35.962 127.162 30.519C127.185 27.3702 126.26 24.5925 124.376 22.6582Z" fill="#00B100"/>
<path d="M153.762 32.1271C153.762 28.8433 152.518 26.2456 150.349 23.9401C148.155 21.601 144.855 20.1504 141.44 20.1504C137.819 20.1504 134.701 21.5223 132.211 24.1089C129.973 26.4255 129.082 29.1921 129.082 32.5995C129.082 36.0183 130.453 39.2346 132.92 41.4162C135.512 43.6992 138.196 44.88 142.079 44.88C145.391 44.88 148.853 43.6204 151.17 41.956L147.881 38.7172C146.26 39.8305 144.147 40.5279 142.205 40.5279C139.407 40.5279 136.243 38.7735 134.952 36.4456L153.706 33.1956C153.729 32.8806 153.762 32.4421 153.762 32.1271ZM134.416 31.7673C134.473 28.1236 136.54 24.705 141.485 24.705C145.848 24.705 147.903 27.5614 148.373 29.833L134.416 32.2509V31.7673Z" fill="#00B100"/>
<path d="M86.8576 26.8196C83.8082 26.8196 83.043 25.0877 83.043 23.4683C83.043 21.8489 83.9453 20.1172 86.8576 20.1172C89.77 20.1172 90.6723 21.8489 90.6723 23.4683C90.6723 25.0877 89.9071 26.8196 86.8576 26.8196Z" fill="#00B100"/>
<mask id="mask0_652_35" style="mask-type:alpha" maskUnits="userSpaceOnUse" x="3" y="4" width="53" height="53">
<path d="M29.4789 4.62695C43.8922 4.62695 55.6216 16.1652 55.6216 30.3575C55.6216 44.5497 43.8922 56.0991 29.4789 56.0991C15.0656 56.0991 3.34766 44.5497 3.34766 30.3575C3.34766 16.1652 15.0656 4.62695 29.4789 4.62695Z" fill="white"/>
</mask>
<g mask="url(#mask0_652_35)">
<path d="M25.668 30.3556C25.668 28.2864 27.381 26.5996 29.4825 26.5996C31.584 26.5996 33.2971 28.2753 33.2971 30.3556C33.2971 32.4249 31.584 34.1118 29.4825 34.1118C27.381 34.1118 25.668 32.4361 25.668 30.3556Z" fill="#00B100"/>
<path d="M35.9449 24.7902L45.0932 19.5834C46.8978 18.56 47.2404 16.1309 45.7784 14.6577C42.9117 11.7675 39.257 9.64202 35.1455 8.60741C33.1125 8.10134 31.1367 9.5858 31.1367 11.655V22.0686C31.1481 24.4865 33.8093 26.0048 35.9449 24.7902Z" fill="#00B100"/>
<path d="M27.812 22.0687V11.6662C27.812 9.60825 25.8362 8.11255 23.8033 8.61861C19.703 9.65323 16.0483 11.7787 13.1702 14.6689C11.7084 16.1308 12.051 18.5599 13.8555 19.5946L23.0037 24.8014C25.1508 26.0047 27.812 24.4865 27.812 22.0687Z" fill="#00B100"/>
<path d="M37.6096 33.0892L46.7693 38.296C48.5737 39.3194 50.8809 38.3972 51.4404 36.4292C51.9887 34.5061 52.2856 32.4706 52.2856 30.3677C52.2856 28.2647 51.9887 26.2405 51.4404 24.3062C50.8809 22.3268 48.5737 21.416 46.7693 22.4393L37.6096 27.6461C35.4739 28.8494 35.4739 31.8746 37.6096 33.0892Z" fill="#00B100"/>
<path d="M23.0271 35.9229L13.8789 41.1297C12.0744 42.1532 11.7318 44.5823 13.1937 46.0554C16.0603 48.9456 19.715 51.0711 23.8266 52.1057C25.8595 52.6118 27.8355 51.1274 27.8355 49.0581V38.6444C27.8126 36.2265 25.1515 34.7196 23.0271 35.9229Z" fill="#00B100"/>
<path d="M21.3597 27.6345L12.1999 22.4277C10.3954 21.4043 8.08838 22.3265 7.52874 24.2945C6.98054 26.2175 6.68359 28.253 6.68359 30.356C6.68359 32.459 6.98054 34.4832 7.52874 36.4175C8.08838 38.3967 10.3954 39.3077 12.1999 38.2844L21.3597 33.0774C23.4838 31.8741 23.4838 28.8491 21.3597 27.6345Z" fill="#00B100"/>
<path d="M31.1484 38.6564V49.0702C31.1484 51.128 33.1242 52.6238 35.1572 52.1177C39.2573 51.0832 42.912 48.9577 45.7901 46.0675C47.2521 44.6056 46.9093 42.1765 45.1049 41.1418L35.9566 35.935C33.8094 34.7204 31.1484 36.2273 31.1484 38.6564Z" fill="#00B100"/>
<path fill-rule="evenodd" clip-rule="evenodd" d="M29.4776 59.3831C13.2027 59.3831 0 46.3941 0 30.3575C0 14.3322 13.2027 1.33203 29.4776 1.33203C45.764 1.33203 58.9667 14.3322 58.9553 30.3575C58.9553 46.3829 45.764 59.3831 29.4776 59.3831ZM55.6214 30.3573C55.6214 16.1651 43.8921 4.62683 29.4788 4.62683C15.0655 4.62683 3.34749 16.1651 3.34749 30.3573C3.34749 44.5496 15.0655 56.099 29.4788 56.099C43.8921 56.099 55.6214 44.5496 55.6214 30.3573Z" fill="#00B100"/>
</g>
</svg>
