<svg width="165" height="60" viewBox="0 0 165 60" fill="none" xmlns="http://www.w3.org/2000/svg">
<path d="M43.3365 18.3588C42.5413 18.9856 42.0443 19.6125 41.6467 20.4185C41.2492 21.2244 41.0504 22.2095 41.0504 23.3737C41.0504 24.5379 41.3486 25.4334 42.0443 26.2394C42.7401 27.0453 43.6347 27.6722 44.6287 28.12C45.722 28.5677 46.8154 29.0155 48.1076 29.2841C49.3004 29.5528 50.4931 29.8214 51.4871 30.0901C52.4811 30.3588 53.3757 30.6274 54.0714 30.9856C54.7672 31.3438 55.0654 31.7916 55.0654 32.4185C55.0654 34.3886 53.3757 35.3737 49.8967 35.3737C47.71 35.3737 45.722 35.0155 43.9329 34.2991C43.3365 34.0304 42.8395 33.9409 42.4419 33.9409C42.0443 33.9409 41.6467 34.12 41.3486 34.4782C40.951 34.8364 40.8516 35.2841 40.8516 35.7319C40.8516 36.2692 41.1498 36.6274 41.6467 36.9856C44.1317 38.2394 47.0142 38.8662 50.0955 38.8662C53.0775 38.8662 55.2642 38.2394 56.954 36.9856C58.4449 35.911 59.2401 34.3886 59.2401 32.5976C59.2401 30.2692 58.0473 28.4782 55.5624 27.4035C54.5684 26.9558 53.3757 26.5976 52.1829 26.3289C50.9901 26.0603 49.7973 25.7916 48.704 25.5229C47.6106 25.2543 46.8154 24.8961 46.1196 24.5379C45.4239 24.1797 45.1257 23.5528 45.1257 22.7468C45.1257 21.9409 45.6226 21.2244 46.5172 20.6871C47.4118 20.1498 48.8034 19.8812 50.5925 19.8812C52.3817 19.8812 54.0714 20.0603 55.5624 20.508C56.0594 20.6871 56.457 20.6871 56.8546 20.6871C57.1528 20.6871 57.5504 20.508 57.9479 20.1498C58.3455 19.7916 58.4449 19.4334 58.4449 19.0752C58.4449 18.717 58.3455 18.3588 58.0473 18.0006C57.7492 17.6423 57.451 17.4632 57.0534 17.2841C54.8666 16.5677 52.5805 16.2095 50.1949 16.2095C47.3124 16.4782 45.0263 17.105 43.3365 18.3588ZM69.6769 12.717C69.3787 12.717 69.1799 12.8961 68.8817 13.0752L62.5202 18.717C62.222 18.8961 62.0233 19.1647 62.0233 19.3438C62.0233 19.8812 62.3214 20.1498 62.9178 20.1498H66.1979V33.2244C66.1979 35.4632 67.0925 37.0752 68.7823 37.9707C69.4781 38.3289 70.2732 38.5976 71.0684 38.6871C71.8636 38.7767 72.7582 38.7767 73.6528 38.7767C74.6467 38.7767 75.7401 38.508 77.1317 37.9707C77.7281 37.702 78.0263 37.3438 78.0263 36.717C78.0263 36.1797 77.8275 35.7319 77.5293 35.4632C77.2311 35.1946 76.8335 35.0155 76.3365 35.0155C75.9389 35.0155 75.5413 35.105 75.1437 35.1946C74.7461 35.2841 74.1498 35.3737 73.3546 35.3737C72.5594 35.3737 71.8636 35.2841 71.5654 35.105C70.969 34.7468 70.5714 34.0304 70.5714 32.9558V20.1498H75.9389C76.4359 20.1498 76.9329 19.9707 77.2311 19.702C77.5293 19.4334 77.7281 18.9856 77.7281 18.5379C77.7281 18.0901 77.5293 17.6423 77.2311 17.3737C76.9329 17.105 76.4359 16.9259 75.9389 16.9259H70.5714V13.6125C70.5714 13.3438 70.472 13.1647 70.3727 12.9856C70.1739 12.717 70.0745 12.6274 69.6769 12.717C69.7763 12.6274 69.7763 12.6274 69.6769 12.717ZM94.4269 16.4782C91.7431 16.4782 89.2582 17.8214 87.0714 20.4185V18.6274C87.0714 18.0901 86.8726 17.6423 86.4751 17.1946C86.0775 16.8364 85.5805 16.6573 84.9841 16.6573C84.3877 16.6573 83.8907 16.8364 83.4931 17.2841C83.0955 17.6423 82.8967 18.1797 82.8967 18.6274V36.717C82.8967 37.2543 83.0955 37.702 83.4931 38.0603C83.8907 38.4185 84.3877 38.5976 84.9841 38.5976C85.5805 38.5976 86.0775 38.4185 86.4751 38.0603C86.8726 37.702 87.0714 37.2543 87.0714 36.717V23.911C87.8666 22.8364 88.96 21.9409 90.1528 21.2244C91.3455 20.508 92.7371 20.1498 94.3275 20.1498H94.5263C95.1226 20.1498 95.6196 19.9707 96.1166 19.702C96.5142 19.3438 96.713 18.8961 96.713 18.3588C96.713 17.8215 96.5142 17.3737 96.1166 17.0155C95.719 16.6573 95.222 16.4782 94.6257 16.4782H94.4269ZM103.074 7.9707C102.379 7.9707 101.882 8.14981 101.385 8.59757C100.888 9.04533 100.689 9.49309 100.689 10.12V10.2991C100.689 10.9259 100.888 11.4632 101.385 11.8214C101.782 12.2692 102.379 12.4483 103.074 12.4483H103.373C104.068 12.4483 104.665 12.2692 105.062 11.8214C105.559 11.3737 105.758 10.9259 105.758 10.2991V10.12C105.758 9.49309 105.559 8.95578 105.062 8.59757C104.565 8.14981 104.068 7.9707 103.373 7.9707H103.074ZM101.683 17.1946C101.285 17.5528 101.086 18.0006 101.086 18.6274V36.717C101.086 37.2543 101.285 37.702 101.683 38.0603C102.08 38.4185 102.577 38.5976 103.273 38.5976C103.87 38.5976 104.367 38.4185 104.764 38.0603C105.162 37.702 105.361 37.2543 105.361 36.717V18.6274C105.361 18.0006 105.162 17.5528 104.764 17.1946C104.367 16.8364 103.87 16.6573 103.273 16.6573C102.577 16.6573 102.08 16.8364 101.683 17.1946ZM117.09 19.702V18.6274C117.09 18.0901 116.891 17.6423 116.493 17.2841C116.096 16.9259 115.599 16.7468 115.002 16.7468C114.406 16.7468 113.909 16.9259 113.511 17.2841C113.114 17.6423 112.915 18.0901 112.915 18.6274V46.4782C112.915 47.0155 113.114 47.4632 113.511 47.911C113.909 48.2692 114.406 48.4483 115.002 48.4483C115.599 48.4483 116.096 48.2692 116.493 47.911C116.891 47.5528 117.09 47.105 117.09 46.4782V35.7319C119.376 37.8812 122.059 38.9558 125.041 38.9558C128.023 38.9558 130.608 38.0603 132.894 36.0901C135.279 33.9409 136.472 31.1647 136.472 27.7617C136.472 24.3588 135.279 21.5826 132.894 19.4334C130.707 17.4632 128.123 16.5677 125.141 16.5677C122.159 16.4782 119.475 17.5528 117.09 19.702ZM117.09 32.1498V23.2841C119.276 21.2244 121.662 20.1498 124.544 20.1498C126.83 20.1498 128.719 20.7767 130.111 22.0304C131.502 23.3737 132.198 25.3438 132.198 27.6722C132.198 28.9259 132.099 30.0006 131.701 30.9856C130.508 33.8513 128.123 35.2841 124.544 35.2841H124.445C121.662 35.2841 119.177 34.2095 117.09 32.1498ZM144.225 19.5229C142.038 21.5826 140.945 24.2692 140.945 27.5826C140.945 30.8961 142.038 33.5826 144.225 35.6423C146.312 37.702 149.294 38.7767 152.972 38.7767C156.55 38.7767 159.532 37.702 161.719 35.6423C163.806 33.5826 164.9 30.8961 164.9 27.5826C164.9 27.4931 164.9 27.4931 164.9 27.4035V27.0453C164.9 24.0006 163.806 21.4035 161.719 19.4334C159.532 17.3737 156.55 16.2991 152.972 16.2991C149.294 16.4782 146.412 17.4632 144.225 19.5229ZM150.189 34.9259C149.294 34.6573 148.4 34.2095 147.704 33.5826C146.909 32.9558 146.312 32.1498 145.915 31.1647C145.418 30.1797 145.219 29.0155 145.219 27.5826C145.219 26.2394 145.418 24.9856 145.915 24.0006C147.207 21.2244 149.593 19.8812 152.972 19.8812C155.059 19.8812 156.749 20.4185 158.141 21.5826C159.83 23.0155 160.626 24.9856 160.626 27.4931C160.626 30.0901 159.83 32.1498 158.141 33.4931C157.346 34.12 156.55 34.5677 155.656 34.8364C154.761 35.105 153.867 35.2841 152.972 35.2841C152.077 35.3737 151.183 35.1946 150.189 34.9259Z" fill="#4A4A4A"/>
<path d="M5.96555 30.268C4.77278 30.7158 3.7788 30.6262 2.98362 30.3575C2.78483 30.6262 2.68543 30.8949 2.48663 31.1635C1.98965 32.1486 1.49266 33.1337 1.19447 34.1187C0.99567 35.1038 0.796875 36.1784 0.796875 37.2531C0.796875 38.3277 0.99567 39.3128 1.49266 40.1187C1.98965 40.9247 2.88422 41.462 3.9776 41.5516C4.97157 41.6411 5.96555 41.1934 6.95953 40.6561C8.84808 39.4919 10.5378 37.7904 12.1282 36.1784C13.7186 34.5665 15.3089 32.865 16.8993 31.1635C18.4896 29.462 20.1794 27.8501 22.1674 26.4172C23.1613 25.7008 24.2547 25.074 25.7457 24.8053C25.9445 24.8053 26.1433 24.8053 26.2427 24.8053C26.4415 24.8053 26.5409 24.8053 26.7396 24.8053C27.0378 24.8053 27.4354 24.8949 27.7336 24.9844C28.4294 25.1635 29.0258 25.5217 29.5228 26.059C29.9204 26.5068 30.2186 26.9546 30.4174 27.4919C30.7156 23.2829 31.8089 11.1038 24.2547 14.3277C19.3842 16.3874 15.9053 21.671 12.4264 25.2531C10.6372 27.0441 8.54989 29.3725 5.96555 30.268Z" fill="#2CB543"/>
<path d="M16.2018 55.7908C16.8976 53.6416 17.7922 51.5819 18.8855 49.6117C19.4819 48.6267 19.9789 47.6416 20.6747 46.6565C21.2711 45.6714 21.8675 44.7759 22.6626 43.8804C24.0542 42.0894 25.4458 40.2983 26.738 38.4177C28.0301 36.6267 29.3223 34.7461 29.6205 32.6864C29.8193 31.6117 29.8193 30.5371 29.7199 29.552C29.6205 28.567 29.3223 27.4923 28.6265 26.8655C28.4277 26.6864 28.2289 26.5073 27.9307 26.3282C25.744 29.7311 22.8614 32.8655 20.6747 36.2685C17.494 41.0147 15.506 45.761 15.4066 51.3132V59.3729C15.3072 59.8207 15.6054 57.8505 16.2018 55.7908ZM0 33.6714C0.298193 32.5968 0.795181 31.6117 1.29217 30.6267C1.88855 29.6416 2.48494 28.6565 3.08133 27.761C4.37349 25.8804 5.66566 23.9998 7.15663 22.2983C10.1386 18.8058 13.2199 15.4028 16.5 12.1789V0.537109C12.4247 5.10427 8.3494 9.85054 4.77108 14.8655C2.78313 17.6416 0.695783 20.5968 0.298193 23.9102C0.0993976 25.9699 0 28.2088 0 30.1789C0 31.6117 0 32.7759 0 33.6714Z" fill="#31CB4B"/>
</svg>
